<?xml version="1.0" encoding="UTF-8" standalone="no"?>
<svg width="34px" height="34px" viewBox="0 0 34 34" version="1.1" xmlns="http://www.w3.org/2000/svg" xmlns:xlink="http://www.w3.org/1999/xlink" xmlns:sketch="http://www.bohemiancoding.com/sketch/ns">
    <!-- Generator: Sketch 3.4.4 (17249) - http://www.bohemiancoding.com/sketch -->
    <title>Shape</title>
    <desc>Created with Sketch.</desc>
    <defs></defs>
    <g id="Page-1" stroke="none" stroke-width="1" fill="none" fill-rule="evenodd" sketch:type="MSPage">
        <g id="Volume" sketch:type="MSArtboardGroup" transform="translate(-73.000000, -73.000000)" fill="#FFFFFF">
            <g id="Player-+-Open-new-song" sketch:type="MSLayerGroup" transform="translate(40.000000, 40.000000)">
                <g id="Player" sketch:type="MSShapeGroup">
                    <g id="Controls" transform="translate(33.000000, 33.000000)">
                        <path d="M17,0 C7.65,0 0,7.65 0,17 C0,26.35 7.65,34 17,34 C26.35,34 34,26.35 34,17 C34,7.65 26.35,0 17,0 L17,0 Z M15.3,23.8 L11.9,23.8 L11.9,10.2 L15.3,10.2 L15.3,23.8 L15.3,23.8 Z M22.1,23.8 L18.7,23.8 L18.7,10.2 L22.1,10.2 L22.1,23.8 L22.1,23.8 Z" id="Shape"></path>
                    </g>
                </g>
            </g>
        </g>
    </g>
</svg>